<svg width="44" height="44" xmlns="http://www.w3.org/2000/svg" class="w-22 h-8" aria-label="Lilt Logo" version="1.1">
 <title>205A3FD3-2C85-4B22-9382-BF91AE55C6B7</title>

 <metadata>205A3FD3-2C85-4B22-9382-BF91AE55C6B7</metadata>
 <g>
  <title>Layer 1</title>
  <g stroke="null" id="svg_1" fill-rule="evenodd" fill="none">
   <g stroke="null" id="svg_2">
    <g stroke="null" id="svg_3">
     <g stroke="null" id="svg_4" fill-rule="nonzero">
      <path stroke="null" id="svg_5" d="m21.96768,27.45959c-3.03319,0 -5.49192,-2.45873 -5.49192,-5.49192c0,-3.03291 2.45873,-5.49192 5.49192,-5.49192s5.49192,2.45901 5.49192,5.49192c0,3.03319 -2.45873,5.49192 -5.49192,5.49192z" fill="#091b5a"/>
      <path stroke="null" id="svg_6" d="m43.93535,37.07045l-35.69747,0c-0.75823,0 -1.37298,-0.61482 -1.37298,-1.37298l0,-24.71364l-6.8649,0l0,26.08662c0,3.79148 3.07342,6.8649 6.8649,6.8649l30.20555,0c3.79148,0 6.8649,-3.07342 6.8649,-6.8649z" fill="#091b5a"/>
      <path stroke="null" id="svg_7" d="m37.07045,32.95151l6.8649,0l0,-26.08662c0,-3.79148 -3.07342,-6.8649 -6.8649,-6.8649l-30.20555,0c-3.79148,0 -6.8649,3.07342 -6.8649,6.8649l35.69747,0c0.75816,0 1.37298,0.61475 1.37298,1.37298l0,24.71364z" fill="#3529be"/>
     </g>
    </g>
   </g>
  </g>
 </g>
</svg>