<svg width="16" height="16" xmlns="http://www.w3.org/2000/svg" class="w-22 h-8" aria-label="Lilt Logo" version="1.1">
 <g>
  <g stroke="null" id="svg_1" fill-rule="evenodd" fill="none">
   <g stroke="null" id="svg_2">
    <g stroke="null" id="svg_3">
     <g stroke="null" id="svg_4" fill-rule="nonzero">
      <path stroke="null" id="svg_5" d="m7.93557,9.91947c-1.0957,0 -1.98389,-0.88819 -1.98389,-1.98389c0,-1.0956 0.88819,-1.98389 1.98389,-1.98389s1.98389,0.88829 1.98389,1.98389c0,1.0957 -0.88819,1.98389 -1.98389,1.98389z" fill="#091b5a"/>
      <path stroke="null" id="svg_6" d="m15.87114,13.39128l-12.8953,0c-0.2739,0 -0.49597,-0.2221 -0.49597,-0.49597l0,-8.92752l-2.47987,0l0,9.42349c0,1.36963 1.11024,2.47987 2.47987,2.47987l10.91141,0c1.36963,0 2.47987,-1.11024 2.47987,-2.47987z" fill="#091b5a"/>
      <path stroke="null" id="svg_7" d="m13.39128,11.90336l2.47987,0l0,-9.42349c0,-1.36963 -1.11024,-2.47987 -2.47987,-2.47987l-10.91141,0c-1.36963,0 -2.47987,1.11024 -2.47987,2.47987l12.8953,0c0.27388,0 0.49597,0.22207 0.49597,0.49597l0,8.92752z" fill="#3529be"/>
     </g>
    </g>
   </g>
  </g>
 </g>
</svg>